<svg version="1.1" class="coda-svg-icon" xmlns="http://www.w3.org/2000/svg" xmlns:xlink="http://www.w3.org/1999/xlink" x="0px" y="0px"
	 viewBox="0 0 257.949 257.949" style="enable-background:new 0 0 257.949 257.949;" xml:space="preserve">
		<g>
			<path class="coda-svg-c04" d="M187.454,99.042c8.207-8.211,8.456-21.321,0.555-29.228c-3.729-3.729-8.733-5.781-14.101-5.781
				c-5.665,0-11.039,2.251-15.126,6.335l-16.674,17.818L80.962,69.883L67.835,83.016c-1.803,1.799-2.797,4.19-2.795,6.739
				c0.002,2.544,0.994,4.936,2.8,6.732l0.661,0.659l43.117,23.732l-13.716,14.877c-0.831,0.838-1.6,1.715-2.304,2.632l-19.718-5.103
				l-9.122,9.126c-1.664,1.662-2.581,3.873-2.581,6.225c0,2.35,0.917,4.561,2.581,6.223l0.745,0.745l22.828,11.582l0.58,0.58
				l11.582,22.837l0.758,0.752c1.664,1.653,3.871,2.561,6.212,2.561c0,0,0,0,0.002,0c2.352,0,4.563-0.917,6.221-2.577l9.122-9.126
				l-5.204-20.121c0.857-0.67,1.68-1.393,2.462-2.169l14.959-13.793l23.926,43.477l0.668,0.666c1.797,1.794,4.186,2.784,6.726,2.784
				c2.535,0,4.922-0.985,6.732-2.786l13.131-13.138l-18.422-61.561l17.507-16.376L187.454,99.042z M178.165,89.618l-23.404,21.889
				l18.508,61.854l-3.974,3.977l-28.824-52.376l-27.46,25.315l-0.192,0.183c-1.131,1.131-2.39,2.041-3.739,2.707l-4.83,2.376
				l4.896,18.929l-7.393-14.575l-3.562-3.558l-14.569-7.391l18.618,4.819l2.35-4.907c0.657-1.371,1.611-2.705,2.764-3.855
				l25.427-27.577L80.759,88.797l3.977-3.977l61.435,18.389l22.03-23.551c1.583-1.547,3.606-2.398,5.712-2.398
				c1.832,0,3.518,0.677,4.742,1.9C181.379,81.891,181.152,86.563,178.165,89.618z"/>
			<path class="coda-svg-c03" d="M232.218,135.617l25.731-9.88l-6.282-35.669l-26.635-0.461c-3.247-8.068-7.486-15.666-12.657-22.687l12.873-23.219
				l-27.744-23.28l-20.132,16.301c-7.887-4.179-16.248-7.303-24.956-9.318l-4.958-25.522h-36.222l-4.925,25.35
				c-8.694,1.94-17.062,4.988-24.973,9.097L60.986,19.852L33.24,43.128l12.818,23.124c-5.202,6.944-9.488,14.472-12.792,22.469
				l-26.97,0.472L0,124.862l25.676,9.851c0.511,8.326,2.004,16.489,4.455,24.365L8.967,177.475l18.111,31.366l26.9-9.265
				c5.511,5.8,11.641,10.918,18.303,15.289l-4.512,28.511l34.029,12.386l14.862-24.735c7.922,0.952,15.774,0.981,23.549,0.141
				l14.959,24.898l34.031-12.386l-4.468-28.222c6.752-4.318,12.966-9.395,18.545-15.146l27.001,9.3l18.111-31.368l-20.889-18.155
				C230.051,152.174,231.632,143.978,232.218,135.617z M231.48,181.068l-7.206,12.485l-24.925-8.586l-2.927,3.289
				c-6.408,7.199-13.89,13.299-22.235,18.14l-3.924,2.273l4.168,26.307l-13.544,4.929l-13.854-23.06l-4.38,0.668
				c-9.252,1.404-18.797,1.387-28.339-0.176l-4.426-0.719l-13.813,22.983l-13.539-4.929l4.193-26.488l-3.851-2.295
				c-8.231-4.9-15.62-11.066-21.958-18.331l-2.927-3.353l-24.914,8.582l-7.206-12.481l19.694-17.119l-1.541-4.263
				c-3.333-9.232-5.119-18.969-5.308-28.948l-0.084-4.455l-23.714-9.104l2.506-14.192l25.068-0.434l1.552-4.281
				c3.476-9.607,8.537-18.503,15.038-26.439l2.844-3.472L50.094,46.255l11.039-9.263l18.858,15.27l3.935-2.27
				c9.069-5.233,18.887-8.809,29.184-10.632l4.47-0.791l4.556-23.457h14.412l4.576,23.549l4.426,0.824
				c10.314,1.918,20.119,5.584,29.144,10.896l3.952,2.328l18.702-15.142l11.039,9.263l-11.848,21.369l2.791,3.461
				c6.459,8.022,11.456,16.993,14.853,26.673l1.525,4.34l24.821,0.432l2.5,14.192l-23.695,9.1l-0.123,4.407
				c-0.28,10.006-2.171,19.771-5.626,29.027l-1.605,4.292L231.48,181.068z"/>
		</g>
</svg>
