<svg class="coda-svg-icon" xmlns="http://www.w3.org/2000/svg" xmlns:xlink="http://www.w3.org/1999/xlink" version="1.1" id="Layer_1" x="0px" y="0px" viewBox="0 0 405.335 405.335" style="enable-background:new 0 0 405.335 405.335;" xml:space="preserve" width="512" height="512">
	<g>
		<circle style="fill:#2BA5F7;" cx="202.64" cy="202.722" r="150.347"/>
		<path style="fill:#F2F2F2;" d="M232.498,350.027c0.003,0.001,0.007,0.002,0.01,0.002c-0.86,0.17-1.71,0.36-2.57,0.52   c-34.01,6.28-67.47,0.57-96.01-14.13c11.96-6.16,24.84-10.76,38.39-13.54c9.79-2.01,19.93-3.06,30.32-3.06   c24.78,0,48.15,5.99,68.76,16.62C259.398,342.609,246.349,347.22,232.498,350.027z"/>
		<path style="fill:#F2F2F2;" d="M272.248,69.479c-20.82,10.88-44.49,17.05-69.61,17.05c-10.73,0-21.2-1.12-31.29-3.27   c-13.54-2.86-26.4-7.55-38.33-13.79v-0.01c12.98-6.78,27.18-11.76,42.33-14.56c2.88-0.53,5.76-0.98,8.64-1.34   c1.72-0.22,3.44-0.41,5.16-0.56c2.29-0.21,4.57-0.37,6.85-0.47c2.93-0.14,5.84-0.18,8.73-0.14c1.91,0.02,3.81,0.08,5.7,0.18   c1.9,0.09,3.79,0.22,5.67,0.4c1.25,0.11,2.5,0.24,3.75,0.38c0.62,0.07,1.24,0.15,1.87,0.23c1.87,0.23,3.72,0.5,5.57,0.82   c1.85,0.3,3.68,0.64,5.51,1.02C246.648,58.249,259.918,63.019,272.248,69.479z"/>
		<path style="fill:#2197D8;" d="M193.925,336.419c-11.29-5.8-21.81-13.02-31.29-21.46c-24.1-21.44-41.51-50.76-47.82-84.94   c-8.38-45.39,4.58-89.79,31.78-122.85c12.63-15.36,28.34-28.28,46.42-37.71c12.247-6.397,25.591-11.167,39.783-14.04   c-18.407-3.776-37.833-4.145-57.45-0.52c-15.15,2.8-29.35,7.78-42.33,14.56c-18.08,9.43-33.79,22.35-46.42,37.71   c-27.2,33.06-40.16,77.46-31.78,122.85c6.31,34.18,23.72,63.5,47.82,84.94c9.48,8.44,20,15.66,31.29,21.46   c28.54,14.7,62,20.41,96.01,14.13c0.864-0.16,1.714-0.351,2.572-0.525C218.988,347.252,206.014,342.646,193.925,336.419z"/>
		<path style="fill:#E6E6E6;" d="M171.348,83.259c-13.54-2.86-26.4-7.55-38.33-13.79v-0.01c12.98-6.78,27.18-11.76,42.33-14.56   c2.88-0.53,5.76-0.98,8.64-1.34c1.72-0.21,3.44-0.4,5.16-0.56c2.29-0.21,4.57-0.36,6.85-0.47c2.92-0.13,5.83-0.18,8.73-0.14   c1.91,0.03,3.81,0.09,5.7,0.18c1.9,0.1,3.79,0.23,5.67,0.4c1.25,0.11,2.5,0.24,3.75,0.38c0.62,0.07,1.24,0.15,1.87,0.23   c1.86,0.24,3.72,0.51,5.57,0.82c1.84,0.3,3.68,0.65,5.51,1.02c-14.19,2.87-27.54,7.64-39.78,14.04   C185.348,73.459,178.108,78.079,171.348,83.259z"/>
		<path style="fill:#E6E6E6;" d="M193.928,336.419c12.09,6.23,25.06,10.83,38.58,13.61c-0.86,0.17-1.71,0.36-2.57,0.52   c-34.01,6.28-67.47,0.57-96.01-14.13c11.96-6.16,24.84-10.76,38.39-13.54C179.118,327.999,186.348,332.529,193.928,336.419z"/>
		<path style="fill:#9AD14B;" d="M112.318,201.129c-7.44,10.97-12.93,19.8-8.22,29.22c9.26,18.5,36.41,37.38-1.45,84.6l-0.01,0.01   c-24.1-21.44-41.51-50.76-47.82-84.94c-8.38-45.39,4.58-89.79,31.78-122.85c0,0,28.72,10.51,40.71,30.11   c4.19,6.82,6.34,14.73,4.55,23.69C128.448,177.989,119.478,190.559,112.318,201.129z"/>
		<path style="fill:#90BC42;" d="M104.098,230.349c9.26,18.5,36.41,37.38-1.45,84.6l-0.01,0.01c-24.1-21.44-41.51-50.76-47.82-84.94   c-8.38-45.39,4.58-89.79,31.78-122.85c0,0,28.72,10.51,40.71,30.11c-9.48,19.56-14.79,41.29-14.99,63.85   C104.878,212.099,99.388,220.929,104.098,230.349z"/>
		<path style="fill:#9AD14B;" d="M350.468,175.429c0.39,2.11,0.73,4.21,1.02,6.31c-4.39,7.66-10.26,13.77-15.91,18.42   c-10.43,8.59-17.55,20.43-21.13,33.46c-3.46,12.55-10.07,23.12-17.14,31.51c-24.04,28.54-70.47,1.91-57.44-33.06   c0.21-0.57,0.44-1.15,0.68-1.72c3.16-7.59,8.73-12.93,15.17-16.68c19.59-11.42,26.88-35.95,16.32-56.02s-15.11-36.77,7.82-47.56   c12.96-6.09,26.17-6.91,37.97-3.96l0.01-0.01C334.018,125.369,345.578,148.939,350.468,175.429z"/>
		<path style="fill:#CCCCCC;" d="M202.344,405.241c-39.593,0.004-79.557-11.544-114.563-35.634   c-44.574-30.682-74.533-76.886-84.357-130.101C-6.402,186.288,5.086,132.433,35.77,87.861   C90.702,8.038,194.92-21.783,283.571,16.954c2.783,1.216,4.054,4.458,2.838,7.242c-1.217,2.783-4.459,4.053-7.242,2.838   C195.336-9.597,96.782,18.608,44.832,94.098c-29.019,42.152-39.883,93.083-30.591,143.41   c9.291,50.326,37.623,94.021,79.776,123.037c87.023,59.884,206.555,37.816,266.457-49.196   c33.635-48.893,42.728-109.443,24.943-166.123c-2.034-6.45-4.431-12.868-7.118-19.068c-1.209-2.787,0.071-6.026,2.858-7.234   c2.785-1.21,6.025,0.072,7.233,2.858c2.839,6.547,5.368,13.324,7.52,20.143c18.806,59.938,9.191,123.96-26.375,175.66   C330.292,374.591,266.825,405.235,202.344,405.241z"/>
		<path style="fill:#808080;" d="M366.649,80.823h-6.532l-10.943-10.945l9.315-1.247c3.858-0.517,6.566-4.062,6.05-7.92   c-0.518-3.858-4.084-6.567-7.92-6.049l-19.983,2.676l-14.315-14.318c-2.754-2.753-7.215-2.752-9.967,0   c-2.752,2.752-2.752,7.214,0,9.966l14.316,14.319l-2.683,19.975c-0.518,3.857,2.189,7.404,6.047,7.923   c0.318,0.043,0.634,0.064,0.947,0.064c3.475,0,6.5-2.571,6.976-6.11l1.25-9.312l13.005,13.008c1.322,1.322,3.115,2.065,4.984,2.065   h9.452c3.892,0,7.047-3.155,7.047-7.047S370.541,80.823,366.649,80.823z"/>
	</g>
</svg>
