<svg version="1.1" class="coda-svg-icon" xmlns="http://www.w3.org/2000/svg" xmlns:xlink="http://www.w3.org/1999/xlink" x="0px" y="0px"
	 viewBox="0 0 864 864" xml:space="preserve">
<g id="Layer_2">
	<path fill="#FFFFFF" stroke="#000000" stroke-miterlimit="10" d="M149.456,463.273c-7.532-2.105-12.815-4.448-18.262-4.938
		c-14.595-1.308-29.55-0.375-43.784-3.224c-7.919-1.587-14.681-8.95-21.966-13.711c1.434-2.653,2.866-5.31,4.3-7.963
		c12.37,3.342,24.737,6.684,33.901,9.16c-5.344-10.891-10.705-21.812-17.794-36.256c10.054-0.818,17.827-1.451,25.602-2.083
		c-0.655-1.037-1.308-2.073-1.961-3.109c3.803-2.958,7.516-8.338,11.422-8.482c25.314-0.927,45.018,12.771,64.464,26.657
		c5.325,3.801,10.622,7.644,15.88,11.537c7.732,5.726,15.281,11.71,23.165,17.217c6.603,4.613,13.396,9.016,20.438,12.914
		c5.319,2.943,13.476,3.376,16.364,7.639c10.886,16.067,22.054,10.07,33.754,2.33c5.245-3.472,10.058-7.59,15.237-11.168
		c22.221-15.357,28.05-14.043,42.661,9.114c1.455,2.303,3.727,4.092,11.859,6.574c1.187-13.325,7.12-28.936,2.136-39.295
		c-4.425-9.201-20.557-13.57-32.234-18.321c-26.896-10.948-57.204-16.323-80.855-31.941
		c-93.239-61.571-109.111-216.567-31.977-295.923c34.616-35.613,79.108-49.482,127.472-51.977
		c42.104-2.173,82.845,0.878,115.26,33.73c3.538,3.587,14.849,3.71,19.999,0.847c48.588-27.016,89.821-7.114,110.341,38.066
		c7.445,16.394,17.159,21.812,34.284,25.03c24.473,4.598,48.868,12.722,71.484,23.237c22.513,10.468,40.44,27.525,47.293,53.514
		c3.086,11.706,7.876,20.736,24.236,20.061c23.239-0.962,37.827,19.286,35.315,44.525c-1.972,19.824-23.353,35.85-43.47,34.115
		c-6.243-0.538-15.749,1.216-18.863,5.488c-32.604,44.733-80.351,60.457-131.09,72.538c-33.31,7.93-66.036,18.709-98.406,29.982
		c-11.51,4.01-22.072,12.233-31.492,20.359c-10.678,9.209-10.997,21.201-5.737,34.535c5.388,13.659,15.688,11.001,25.942,10.737
		c10.989-0.282,22.079,0.511,32.935-0.772c5.501-0.648,12.148-3.527,15.596-7.644c19.846-23.706,36.731-24.565,61.036-6.556
		c8.309,6.158,22.907,3.063,33.509,7.125c8.535,3.27,19.652,9.518,22.147,16.953c6.634,19.773,10.989,40.771,12.538,61.559
		c0.598,8.002-7.412,18.18-14.051,24.82c-9.341,9.343-20.936,16.479-31.793,24.246c-7.771,5.559-15.913,10.602-27.61,18.338
		c1.217,14.813,2.373,33.421,4.359,51.938c3.061,28.527,6.114,57.076,10.292,85.451c2.549,17.306-5.468,30.662-26.008,32.836
		c-43.167,4.565-86.506,7.845-129.849,10.315c-41.13,2.346-82.359,2.88-123.535,4.432c-15.501,0.582-26.636-1.199-27.131-21.683
		c-0.606-25.118-4.704-50.17-7.633-75.21c-2.75-23.496,4.215-43.571,17.327-63.183c11.609-17.363,20.579-36.653,29.329-55.729
		c10.188-22.209,7.646-44.931,0.056-66.551c-21.362,12.062-41.709,25.228-63.578,34.968c-7.396,3.297-18.942-1.069-28.075-3.708
		c-14.051-4.063-29.234-7.279-41.101-15.137c-19.947-13.208-38.854-28.566-55.974-45.298
		c-15.293-14.942-31.643-21.743-52.756-20.491c-9.427,0.559-19.069-2.492-28.614-3.903c0.229-2.879,0.459-5.757,0.688-8.635
		C106.404,463.273,126.328,463.273,149.456,463.273z"/>
</g>
<g id="Layer_3">
	<path fill="#8B5E3C" stroke="#000000" stroke-miterlimit="10" d="M478.154,435.896c0,0-55.425-41.976-57.693-47.436
		c-2.268-5.459,3.846-56.41,3.846-56.41l30.951-63.525l22.896-58.269V162.82l-7.693-67.949l-32.393-35.897l-71.453-15.385
		c0,0-84.616,8.975-112.821,37.18s-84.341,101.583-64.103,179.486c20.238,77.904,93.59,119.231,103.846,123.078
		c10.256,3.846,62.821,17.949,71.795,29.486c8.974,11.539,12.82,39.745,12.82,44.872c0,5.129,59.915,1.211,59.915,1.211
		L478.154,435.896z"/>
</g>
<g id="Layer_1">
	<path fill-rule="evenodd" clip-rule="evenodd" d="M148.456,463.273c-7.532-2.105-12.815-4.448-18.262-4.938
		c-14.961-1.34-30.027-0.472-43.784-3.224c-7.919-1.587-14.681-8.95-21.966-13.711c1.434-2.653,2.866-5.31,4.3-7.963
		c12.37,3.342,24.737,6.684,33.901,9.16c-5.344-10.891-10.705-21.812-17.794-36.256c10.054-0.818,17.827-1.451,25.602-2.083
		c-0.655-1.037-1.308-2.073-1.961-3.109c3.803-2.958,7.516-8.338,11.422-8.482c25.314-0.927,45.018,12.771,64.464,26.657
		c5.325,3.801,10.622,7.643,15.88,11.537c7.732,5.726,15.281,11.71,23.165,17.217c6.603,4.613,13.396,9.016,20.438,12.914
		c5.319,2.943,13.476,3.376,16.364,7.639c10.886,16.067,22.054,10.07,33.754,2.33c5.245-3.472,10.058-7.59,15.237-11.168
		c22.221-15.357,28.05-14.043,42.661,9.114c1.455,2.303,3.727,4.092,11.859,6.574c1.187-13.325,7.12-28.936,2.136-39.295
		c-4.425-9.201-20.557-13.57-32.234-18.321c-26.896-10.948-57.204-16.323-80.855-31.941
		c-93.239-61.571-109.111-216.567-31.977-295.923c34.616-35.613,79.108-49.482,127.472-51.977
		c42.104-2.173,82.845,0.878,115.26,33.73c3.538,3.587,14.849,3.71,19.999,0.847c48.588-27.016,89.821-7.114,110.341,38.066
		c7.445,16.394,17.159,21.812,34.284,25.03c24.473,4.598,48.868,12.722,71.484,23.237c22.513,10.468,40.44,27.525,47.293,53.514
		c3.086,11.706,7.876,20.736,24.236,20.061c23.239-0.962,37.827,19.286,35.315,44.525c-1.972,19.824-23.353,35.85-43.47,34.115
		c-6.243-0.538-15.749,1.216-18.863,5.488c-32.604,44.733-80.351,60.457-131.09,72.538c-33.31,7.93-66.036,18.709-98.406,29.982
		c-11.51,4.009-22.072,12.233-31.492,20.359c-10.678,9.209-10.997,21.201-5.737,34.535c5.388,13.659,15.688,11.001,25.942,10.737
		c10.989-0.282,22.079,0.511,32.935-0.772c5.501-0.648,12.148-3.527,15.596-7.644c19.846-23.706,36.731-24.565,61.036-6.556
		c8.309,6.158,22.907,3.063,33.509,7.125c8.535,3.27,19.652,9.518,22.147,16.953c6.634,19.773,10.989,40.771,12.538,61.559
		c0.598,8.002-7.412,18.18-14.051,24.82c-9.341,9.343-20.936,16.479-31.793,24.246c-7.771,5.559-15.913,10.602-27.61,18.338
		c1.217,14.813,2.373,33.421,4.359,51.938c3.061,28.527,6.114,57.076,10.292,85.451c2.549,17.306-5.468,30.662-26.008,32.836
		c-43.167,4.565-86.506,7.845-129.849,10.315c-41.13,2.346-82.359,2.88-123.535,4.432c-15.501,0.582-26.636-1.199-27.131-21.683
		c-0.606-25.118-4.704-50.17-7.633-75.21c-2.75-23.496,4.215-43.571,17.327-63.183c11.609-17.363,20.579-36.653,29.329-55.729
		c10.188-22.209,7.646-44.931,0.056-66.551c-21.362,12.062-41.709,25.228-63.578,34.968c-7.396,3.297-18.942-1.069-28.075-3.708
		c-14.051-4.063-29.234-7.279-41.101-15.137c-19.947-13.208-38.854-28.566-55.974-45.298
		c-15.293-14.942-31.643-21.743-52.756-20.491c-9.427,0.559-19.069-2.492-28.614-3.903c0.229-2.879,0.459-5.757,0.688-8.635
		C105.404,463.273,125.328,463.273,148.456,463.273z M543.514,599.161c-6.512-9.955-10.816-20.783-18.611-27.648
		c-22.485-19.803-50.537-9.595-67.417,23.406c-19.671,38.454-11.164,78.121-3.403,117.193c2.603,13.097-1.554,18.024-12.363,17.788
		c-20.184-0.443-40.362-2.35-60.453-4.483c-3.356-0.356-6.261-4.944-13.789-11.309c21.671-2.132,37.519-4.981,53.341-4.848
		c13,0.109,18.179-4.72,17.93-16.947c-0.145-7.003,0.808-14.292-0.785-20.963c-10.525-44.067,5.559-79.891,34.939-110.872
		c11.85-12.497,27.93-17.532,43.889-7.11c17.141,11.197,33.132,24.152,50.901,37.282c9.242-9.156,19.292-8.596,29.301,4.324
		c2.975,3.838,11.959,7.479,15.175,5.715c6.069-3.329,10.996-10.105,14.314-16.527c1.756-3.396-0.869-9.059-1.032-10.223
		c12.79-7.336,28.94-11.333,32.638-20.406c2.891-7.087-9.677-20.477-17.46-34.939c-1.94-5.183-3.479-20.75-9.521-22.755
		c-9.283-3.08-21.658,3.154-33.643,5.625c-2.436-12.522-5.398-30.382-22.745-23.909c-27.096,10.109,1.016,27.938-3.101,45.515
		c-12.543,0.721-26.154,2.674-39.648,2.06c-43.953-2-87.86-5.015-131.796-7.453c-8.997-0.499-22.463-3.735-25.965,0.63
		c-4.574,5.703-1.599,17.729-1.296,27.014c0.504,15.512,6.088,32.669,1.234,46.145c-8.89,24.691-24.417,46.917-35.994,70.746
		c-5.705,11.736-11.951,24.66-12.333,37.218c-0.698,22.975,1.525,46.282,5.241,69.009c1.189,7.264,10.942,18.764,16.791,18.774
		c71.112,0.126,142.229-1.426,213.337-2.831c12.608-0.249,19.897-7.233,17.946-20.243c-6.92-46.149-13.75-92.326-21.906-138.263
		c-3.183-17.933-13.663-22.366-30.565-11.921c-9.924,6.131-22.116,8.594-33.288,12.703c-0.889-2.373-1.776-4.746-2.666-7.122
		C507.279,613.142,523.845,606.751,543.514,599.161z M744.265,263.441c-1.009-33.744-11.205-57.202-33.21-75.463
		c-32.227-26.744-73.104-30.39-111.054-41.688c-2.604-0.776-9.603,5.388-10.978,9.514c-14.642,43.955-47.267,59.518-90.707,60.247
		c-7.272,0.122-18.242,3.794-21.036,9.18c-14.476,27.912-28.547,56.285-39.443,85.725c-9.427,25.469-16.479,52.291-7.596,80.198
		c6.469,20.324,31.661,37.36,44.286,26.733c33.555-28.247,75.973-30.295,114.533-43.899c40.069-14.135,80.299-29.316,117.525-49.461
		C729.937,311.891,743.851,287.086,744.265,263.441z M387.156,453.924c12.497-4.66,20.724-9.159,29.455-10.596
		c9.46-1.557,19.416,0.188,29.105-0.381c5.243-0.307,10.379-2.433,15.562-3.739c-3.912-4.013-7.098-9.709-11.858-11.772
		c-36.482-15.81-50.725-39.589-39.076-77.783c10.128-33.207,25.829-64.722,39.282-96.894c5.388-12.88,11.348-25.52,17.048-38.269
		c-1.745-1.689-3.487-3.38-5.23-5.07c-7.408,2.26-14.734,4.846-22.24,6.702c-10.682,2.641-21.873,7.767-32.178,6.483
		c-25.683-3.197-28.289-2.927-28.118,23.59c0.212,33.011-15.843,53.74-44.855,66.782c-28.015,12.592-54.141,3.278-65.144-25.512
		c-5.425-14.187-7.068-29.778-11.698-44.33c-1.723-5.41-6.714-13.383-10.845-13.789c-16.247-1.603-32.745-0.657-49.34-0.657
		c6.669,75.303,56.732,135.917,128.604,158.768C357.497,397.59,388.231,408.63,387.156,453.924z M201.335,188.297
		c30.062-2.534,59.235,7.687,82.207-20.627c13.449-16.574,45.149-15.293,60.747,1.414c11.917,12.763,24.918,13.808,40.073,11.01
		c6.838-1.261,14.603-4.792,20.456-2.833c25.312,8.474,25.612-8.832,29.028-25.207c3.101-14.862,5.812-30.706,13.138-43.592
		c13.002-22.875,12.155-28.695-13.813-37.06c-38.878-12.524-78.581-13.707-118.555-6.996
		C261.518,73.318,208.493,129.509,201.335,188.297z M461.68,496.175c-0.201-2.189-0.401-4.378-0.604-6.567
		c-4.635,7.499-9.272,14.996-17.415,28.165c38.638-2.631,72.445-4.935,106.254-7.237c-0.035-2.959-0.068-5.917-0.104-8.876
		C520.436,499.832,491.057,498.002,461.68,496.175z M760.571,268.246c20.563-8.006,17.001,10.89,24.982,20.223
		c2.505-9.537,5.41-20.246,1.718-27.675c-3.996-8.043-14.147-13.027-21.613-19.346c-1.695,1.545-3.391,3.088-5.087,4.631
		C760.571,252.816,760.571,259.554,760.571,268.246z"/>
	<path fill-rule="evenodd" clip-rule="evenodd" d="M517.487,673.601c16.873-21.093,34.358-20.276,47.836,0
		C549.835,673.601,535.576,673.601,517.487,673.601z"/>
	<path fill-rule="evenodd" clip-rule="evenodd" d="M285.524,238.451c1.222-27.009,9.683-38.633,27.67-38.015
		c18.812,0.645,33.957,22.178,32.36,46.005c-1.56,23.247-14.09,37.84-31.618,36.816
		C292.881,282.028,284.174,268.299,285.524,238.451z"/>
</g>
<g id="Layer_5">
	<path fill-rule="evenodd" clip-rule="evenodd" fill="#BE1E2D" d="M449.28,452.468l-25.697,7.213l-23.67,0.653l-18.519,8.209
		l-11.111,11.111l-24.614,1.234c0,0-6.25-17.284-13.899-20.555s-55.029,26.437-55.029,26.437l-38.557-12.308
		c0,0-48.148-42.957-60.494-51.762s-56.79-23.799-56.79-23.799h-7.864l5.395,15.32h-26.59l17.06,33.876l24.346,4.396
		c0,0,24.691,8.642,16.209,11.779s-57.614,8.895-57.614,8.895s52.516-0.921,59.924,2.782s66.667,50.618,75.309,58.025
		s58.314,16.049,58.314,16.049l46.382-20.987l38.514-20.987H432l24.704-28.396l4.938-27.187H449.28z M178.926,468.543
		c-12.346-8.642-68.474-49.881-32.099-36.543c22.222,8.148,101.234,67.407,109.876,72.346S191.271,477.185,178.926,468.543z
		 M357.938,501.979c0,0-38.272,6.071-48.148,10.392s-43.21,11.729-55.556,9.259s-25.926-11.111-25.926-11.111
		c6.173,0,46.913,7.408,72.839-7.407S338.185,492,354.234,492s23.457,4.938,23.457,4.938L357.938,501.979z"/>
</g>
<g id="Layer_4">
	<path fill-rule="evenodd" clip-rule="evenodd" fill="#C49A6C" d="M566.976,104.921c-16.956-19.934-46.89-27.852-75.845-11.392
		c-24.686,14.033-35.963,38.301-32.277,60.022c0.638,3.757,1.723,7.438,3.264,10.976l-20.04,12.756
		c-10.257,10.256-33.333,19.667-42.308,18.167c-8.503-1.421-49.447-0.149-53.73-0.012c-4.708-9.966-11.721-18.769-26.169-18.172
		c-16.885,0.696-26.931,10.846-33.561,24.061c-11.344,0.103-38.108,1.333-90.124,4.055c0.021,2.272,0.041,4.547,0.06,6.819
		c18.571-1.736,59.718,6.812,82.583,7.032c-2.812,7.451-4.998,14.873-4.998,22.525c0,13.183,3.209,20.374,5.317,29.14
		c4.514,18.777,18.912,30.287,35.896,29.554c10.994-0.474,24.262-11.45,31.562-21.366c12.472-16.938,13.641-36.143,9.403-54.943
		c5.159-2.644,27.051-13.526,37.863-13.526c12.306,0,46.92-7.256,58.459-15.167c7.727-5.297,13.888-12.789,18.987-16.396
		c18.76,20.958,50.787,20.325,75.074,6.519C575.351,169.112,586.601,127.99,566.976,104.921z M345.427,246.638
		c-1.561,23.247-14.09,37.84-31.619,36.815c-21.055-1.228-29.762-14.957-28.412-44.805c1.223-27.009,9.684-38.633,27.671-38.015
		C331.878,201.278,347.023,222.811,345.427,246.638z M538.137,172.564c-20.684,11.756-49.231,10.152-60.199-15.033
		c-7.463-17.138,0.041-38.956,20.725-50.712c20.682-11.757,42.063-6.101,54.174,8.137
		C566.854,131.435,558.819,160.808,538.137,172.564z"/>
</g>
</svg>
