<svg id="svg" xmlns="http://www.w3.org/2000/svg" xmlns:xlink="http://www.w3.org/1999/xlink" width="400" height="400"
     viewBox="0, 0, 400,400">
    <g id="svgg">
        <path id="path0"
              d="M80.000 137.000 L 80.000 162.000 71.000 162.000 L 62.000 162.000 62.000 171.000 C 62.000 179.667,61.778 180.000,56.000 180.000 L 50.000 180.000 50.000 160.000 L 50.000 140.000 39.000 140.000 L 28.000 140.000 28.000 181.000 L 28.000 222.000 14.000 222.000 L 0.000 222.000 0.000 242.791 L 0.000 263.582 16.366 275.791 L 32.731 288.000 192.089 288.000 L 351.446 288.000 374.899 257.707 C 387.797 241.045,398.818 226.195,399.389 224.707 C 400.257 222.447,376.636 222.000,256.214 222.000 L 112.000 222.000 112.000 205.000 C 112.000 188.200,112.059 188.000,117.000 188.000 C 121.821 188.000,122.000 187.533,122.000 175.000 L 122.000 162.000 110.000 162.000 L 98.000 162.000 98.000 137.000 L 98.000 112.000 89.000 112.000 L 80.000 112.000 80.000 137.000 M158.000 163.000 L 158.000 178.000 183.000 178.000 L 208.000 178.000 208.000 163.000 L 208.000 148.000 183.000 148.000 L 158.000 148.000 158.000 163.000 M216.000 163.000 L 216.000 178.000 240.000 178.000 L 264.000 178.000 264.000 163.000 L 264.000 148.000 240.000 148.000 L 216.000 148.000 216.000 163.000 M274.000 163.000 L 274.000 178.000 299.000 178.000 L 324.000 178.000 324.000 163.000 L 324.000 148.000 299.000 148.000 L 274.000 148.000 274.000 163.000 M158.000 201.000 L 158.000 216.000 183.000 216.000 L 208.000 216.000 208.000 201.000 L 208.000 186.000 183.000 186.000 L 158.000 186.000 158.000 201.000 M216.000 201.000 L 216.000 216.000 240.000 216.000 L 264.000 216.000 264.000 201.000 L 264.000 186.000 240.000 186.000 L 216.000 186.000 216.000 201.000 M274.000 201.000 L 274.000 216.000 299.000 216.000 L 324.000 216.000 324.000 201.000 L 324.000 186.000 299.000 186.000 L 274.000 186.000 274.000 201.000 "
              stroke="none" fill="#000000" fill-rule="evenodd"></path>
    </g>
</svg>